<svg version="1" xmlns="http://www.w3.org/2000/svg" width="426.667" height="426.667" viewBox="0 0 320.000000 320.000000"><path d="M19 69v50h20V59h20V39h20v80h20V19H59v20H39V19H19v50zM139 29v10h-20v80h80V99h-60V79h60V59h-60V39h60V19h-60v10zM219 69v50h40V99h20v20h20V19h-20v60h-20v20h-20V19h-20v50zM139 149v10h-20v20H99v20H19v20h40v20H39v20H19v40h280v-40h-20v-20h-20v-20h40v-20h-80v-20h-20v-20h-20v-20h-40v10zm40 20v10h20v20h-80v-20h20v-20h40v10zm60 60v10h20v20h20v20H39v-20h20v-20h20v-20h160v10z"/></svg>