<svg version="1" xmlns="http://www.w3.org/2000/svg" width="93.333" height="93.333" viewBox="0 0 70.000000 70.000000"><path d="M.2 8v8h2.9c2.6 0 2.9.4 2.9 3 0 2.9.2 3 4.5 3H15V8h6c3.3 0 6-.4 6-1s7.7-1 21-1h21v24.2l-25-.4c-22-.3-25-.2-25.1 1.2 0 .8-.5.3-1.1-1.3-.5-1.5-1.4-2.7-1.9-2.7s-.9-.7-.9-1.6c0-1.3-.6-1.5-2.7-1-3 .7-6.3 4-6.3 6.2 0 .8-1 1.4-2.5 1.4-2 0-2.5-.5-2.5-2.5 0-1.4.7-3.7 1.6-5C4 22.3 4 22 2.7 22 .8 22 0 24.1 0 29.1c0 3.7.2 3.9 3.3 4 5.2.2 10.9-.1 16-.7l4.7-.6v9.9c0 9.7.1 9.8 1.7 6.5 2.1-4.3 6.4-6.5 11.9-6l4.4.3v-5.2c0-5.2 0-5.3 3-5.3h3v24h4.5c3.5 0 4.7.4 5.5 2.1 1.5 2.6-1.2 5.9-4.7 5.9-1.4 0-2.1.4-1.8 1 .3.5 1.9 1 3.6 1 1.6 0 2.9.5 2.9 1.1 0 .7-1.8 1-5 .7-2.8-.1-5 .1-5 .5s-1.8.7-4 .5c-2.2-.1-4.3.1-4.6.5-.4.4 6.3.7 14.9.7 9.8 0 15.7-.4 15.7-1s-2-1-4.4-1c-5 0-5.6-.8-5.6-7.6 0-6.1 2.6-6 3.3.1.2 2.6.7 4.8 1 5.1 1.4 1.4 2.7-1.1 2.7-5.2 0-3.2.4-4.4 1.5-4.4 1.3 0 1.5-3.8 1.5-28V0H.2v8z"/><path d="M44 17.5V27h10l-.1-6.3c-.1-5.3-.3-5.7-.9-2.7-.7 3.2-.7 3.1-.9-1.8-.1-6.8-2.5-6.7-2.9.1-.3 3.9-.6 4.7-2.3 4.7-1.7 0-1.9-.7-1.9-5.9v-6l3.8-.4 3.7-.4-4.2-.1L44 8v9.5zM53.2 10c0 1.4.2 1.9.5 1.2.2-.6.2-1.8 0-2.5-.3-.6-.5-.1-.5 1.3zM21.5 11.2c-1.9 5.2-4.5 13.3-4.5 14 0 2.5 1.9-.8 3.5-6.2 1-3.3 2.1-6 2.5-6 .4 0 1.5 2.7 2.5 6 1 3.4 2.2 6.3 2.7 6.6 1.3.8 1-.7-1.5-8.1-2.3-6.7-4.2-9-5.2-6.3zM31 10.7c0 2.8 4.9 14.8 6 14.8 1.4 0 6.3-13.2 5.6-15-.3-.5-.8 0-1.1 1.2-.6 1.9-1.5 2.3-4.6 2.3-2.7 0-3.9-.4-3.9-1.4 0-.8-.4-1.8-1-2.1-.5-.3-1-.2-1 .2zm7.7 8.8c-.6 1.9-1.3 3.5-1.7 3.5-.4 0-1.1-1.6-1.7-3.5-1.1-3.4-1.1-3.5 1.7-3.5s2.8.1 1.7 3.5zM9 37.3c-1.4.7-2.6 2-2.8 3-.3 1.5.5 1.7 5.6 1.7 5.6 0 6-.1 5.5-2.1-.3-1.1-1.7-2.5-3-3-2.9-1.1-2.3-1.1-5.3.4zM2 44c0 1.1.2 2 .5 2 .2 0 .9-.9 1.5-2 .9-1.6.8-2-.5-2-.8 0-1.5.9-1.5 2zM11.3 45c-3.5 1.4-4.5 4.6-4.1 13.1.3 8.6 1.3 10.2 5.7 10.2 5.4 0 6.1-1.4 6.1-12.8 0-9.8-.1-10.3-2.2-10.9-2.8-.7-2.7-.7-5.5.4zM34.3 47c-3.3 1.3-4.6 4.7-4.1 10.7.5 6.2 1.6 7.6 5.7 7.6C41 65.3 42 63.7 42 55c0-7.2-.2-7.8-2.2-8.4-2.8-.7-2.7-.7-5.5.4zM51.7 58.6c-1.3 1.3-.7 2.4 1.4 2.4 1.1 0 1.9-.5 1.7-1.2-.5-1.4-2.2-2.1-3.1-1.2zM24 65.2c0 3-.4 3.7-2.2 4.1-1.3.2.2.5 3.2.5 4.7.1 5.3 0 3.8-1.2-1-.7-2.4-2.6-3.3-4.2L24 61.5v3.7zM2 69c0 .5.5 1 1.1 1 .5 0 .7-.5.4-1-.3-.6-.8-1-1.1-1-.2 0-.4.4-.4 1z"/></svg>